HIERARCHY
ROOT Hips
{
	OFFSET 0.00000 0.00000 0.00000
	CHANNELS 6 Xposition Yposition Zposition Zrotation Yrotation Xrotation 
	JOINT LHipJoint
	{
		OFFSET 0 0 0
		CHANNELS 3 Zrotation Yrotation Xrotation
		JOINT LeftHip
		{
			OFFSET 1.86795 -1.59681 0.65681
			CHANNELS 3 Zrotation Yrotation Xrotation
			JOINT LeftKnee
			{
				OFFSET 2.30491 -6.33268 0.00000
				CHANNELS 3 Zrotation Yrotation Xrotation
				JOINT LeftAnkle
				{
					OFFSET 2.46780 -6.78022 0.00000
					CHANNELS 3 Zrotation Yrotation Xrotation
					JOINT LeftToe
					{
						OFFSET 0.07897 -0.21698 1.59652
						CHANNELS 3 Zrotation Yrotation Xrotation
						End Site
						{
							OFFSET 0.00000 -0.00000 0.82310
						}
					}
				}
			}
		}
	}
	JOINT RHipJoint
	{
		OFFSET 0 0 0
		CHANNELS 3 Zrotation Yrotation Xrotation
		JOINT RightHip
		{
			OFFSET -1.93650 -1.59681 0.65681
			CHANNELS 3 Zrotation Yrotation Xrotation
			JOINT RightKnee
			{
				OFFSET -2.29410 -6.30299 0.00000
				CHANNELS 3 Zrotation Yrotation Xrotation
				JOINT RightAnkle
				{
					OFFSET -2.48738 -6.83403 0.00000
					CHANNELS 3 Zrotation Yrotation Xrotation
					JOINT RightToe
					{
						OFFSET -0.08699 -0.23899 1.89395
						CHANNELS 3 Zrotation Yrotation Xrotation
						End Site
						{
							OFFSET -0.00000 -0.00000 0.96904
						}
					}
				}
			}
		}
	}
	JOINT lowerback
	{
		OFFSET 0 0 0
		CHANNELS 3 Zrotation Yrotation Xrotation
		JOINT Chest
		{
			OFFSET 0.03629 1.99740 -0.07548
			CHANNELS 3 Zrotation Yrotation Xrotation
			JOINT Chest2
			{
				OFFSET 0.03970 1.94298 0.17218
				CHANNELS 3 Zrotation Yrotation Xrotation
				JOINT lowerneck
				{
					OFFSET 0 0 0
					CHANNELS 3 Zrotation Yrotation Xrotation
					JOINT Neck
					{
						OFFSET -0.05054 1.79469 0.04241
						CHANNELS 3 Zrotation Yrotation Xrotation
						JOINT Head
						{
							OFFSET 0.05195 1.78475 -0.22133
							CHANNELS 3 Zrotation Yrotation Xrotation
							End Site
							{
								OFFSET 0.02420 1.80711 -0.07950
							}
						}
					}
				}
				JOINT LeftCollar
				{
					OFFSET 0 0 0
					CHANNELS 3 Zrotation Yrotation Xrotation
					JOINT LeftShoulder
					{
						OFFSET 2.92134 1.19850 0.36056
CHANNELS 3 Zrotation Xrotation Yrotation
						JOINT LeftElbow
						{
OFFSET 0 -4.841370 0.000000
CHANNELS 3 Zrotation Xrotation Yrotation
							JOINT LeftWrist
							{
OFFSET 0 -3.245200 -0.000000
CHANNELS 3 Zrotation Xrotation Yrotation
								JOINT lhand
								{
									OFFSET 0 0 0
CHANNELS 3 Zrotation Xrotation Yrotation
									JOINT LFingers
									{
OFFSET 0 -0.521220 0.000000
CHANNELS 3 Zrotation Xrotation Yrotation
										End Site
										{
OFFSET 0 -0.420220 0.000000
										}
									}
								}
								JOINT LThumb
								{
OFFSET 0 0.000000 0.000000
CHANNELS 3 Zrotation Xrotation Yrotation
									End Site
									{
OFFSET 0 -0.426640 0.426640
									}
								}
							}
						}
					}
				}
				JOINT RightCollar
				{
					OFFSET 0 0 0
					CHANNELS 3 Zrotation Yrotation Xrotation
					JOINT RightShoulder
					{
						OFFSET -2.84327 1.20795 0.50191
CHANNELS 3 Zrotation Xrotation Yrotation
						JOINT RightElbow
						{
OFFSET 0 -4.722840 0.000000
CHANNELS 3 Zrotation Xrotation Yrotation
							JOINT RightWrist
							{
OFFSET 0 -3.234590 0.000000
CHANNELS 3 Zrotation Xrotation Yrotation
								JOINT rhand
								{
									OFFSET 0 0 0
CHANNELS 3 Zrotation Xrotation Yrotation
									JOINT RFingers
									{
OFFSET 0 -0.307420 0.000000
CHANNELS 3 Zrotation Xrotation Yrotation
										End Site
										{
OFFSET 0 -0.247850 0.000000
										}
									}
								}
								JOINT RThumb
								{
OFFSET 0 0.000000 0.000000
CHANNELS 3 Zrotation Xrotation Yrotation
									End Site
									{
OFFSET 0 -0.251630 0.251630
									}
								}
							}
						}
					}
				}
			}
		}
	}
}
MOTION
Frames: 7
Frame Time: 0.008333333333333333
3.366400 17.032300 31.206100 172.604000 -68.932300 -161.454000 0.000000 0.000000 0.000000 -18.931400 -2.149500 -9.531300 5.219000 13.626300 41.760400 -0.169600 7.857900 0.280700 2.949100 10.612200 30.982900 0.000000 0.000000 0.000000 18.600400 26.601600 -21.720900 -1.780400 -8.392900 23.913900 2.205500 -29.671500 -28.645300 -5.086800 -13.480800 41.196200 -3.180900 -0.449500 -5.115100 0.181800 -0.718700 -5.624400 1.955800 -0.334400 -2.901000 -6.519000 -9.845800 -3.695100 19.352500 -18.965700 19.527600 5.603500 -8.599200 9.293500 -0.000000 -0.000000 0.000000 1.888800 14.619600 -7.862700 16.761900 -26.542800 3.980300 -6.791900 26.729300 -37.231000 0.000000 0.000000 0.000000 -7.125000 0.000000 0.000000 -47.520300 60.641400 20.766800 -0.000000 -0.000000 0.000000 -5.949800 15.640000 25.360100 -13.510700 -22.030900 -2.641800 -14.447600 -11.177600 -23.075200 0.000000 0.000000 0.000000 7.125000 0.000000 -0.000000 9.094900 6.481800 8.115500
2.600407 16.953551 30.495695 179.395733 -64.642972 -168.781417 0.000000 0.000000 0.000000 -16.859541 -3.734602 -24.410060 10.455583 17.658014 61.000344 0.005455 3.326916 2.636696 6.811349 15.126789 48.079600 0.000000 0.000000 0.000000 25.443832 29.429291 -14.356265 -1.721753 -8.260650 23.508706 1.634296 -29.032432 -31.558636 -4.792316 -13.119047 39.861813 -0.275611 -0.012681 -3.391960 1.151055 -0.148439 -4.957641 1.341877 -0.111736 -3.194413 -7.296270 -9.805029 -3.307068 19.188350 -18.264583 17.904766 5.773968 -8.401033 8.599528 0.000000 0.000000 0.000000 0.628675 13.334038 -6.395130 16.229614 -25.830778 3.745555 -14.075365 26.630931 -40.044782 0.000000 0.000000 0.000000 -7.125000 0.000000 0.000000 -57.620646 60.639454 26.932424 0.000000 0.000000 0.000000 -9.084091 13.692982 32.151650 -15.834508 -25.295753 -3.574975 -16.618822 -17.432884 -28.046053 0.000000 0.000000 0.000000 7.125000 0.000000 0.000000 8.128220 1.161803 8.042468
1.845744 16.790515 29.874620 180.821332 -58.078775 -169.317062 0.000000 0.000000 0.000000 -16.759282 -11.029132 -33.615223 9.043451 16.833638 56.237388 0.221728 6.829900 -13.922710 0.648382 3.854785 10.815560 0.000000 0.000000 0.000000 29.482620 35.772384 -9.136812 -2.183063 -9.237427 26.540936 0.301192 -27.873360 -37.499205 -4.877571 -13.232400 40.266334 0.425141 0.615215 -3.322187 1.170277 0.678246 -4.795306 0.972877 0.275924 -3.077006 -7.719316 -9.148263 -3.542798 19.651020 -17.816722 19.004634 6.068880 -8.177294 9.035334 0.000000 0.000000 0.000000 0.917159 14.760578 -11.542727 18.443101 -28.720367 4.760529 -1.686306 25.930409 -39.249777 0.000000 0.000000 0.000000 -7.125000 0.000000 0.000000 -45.443977 63.388826 22.553824 0.000000 0.000000 0.000000 -9.195924 10.421144 32.036701 -18.618719 -28.941842 -4.845111 -20.089617 -18.157360 -25.601077 0.000000 0.000000 0.000000 7.125000 0.000000 0.000000 5.815416 3.070448 5.524832
0.988534 16.800423 29.228287 181.956536 -51.777706 -168.508484 0.000000 0.000000 0.000000 -11.873826 -21.518240 -32.820757 2.779829 10.329421 30.050436 -0.028323 9.536000 -13.087241 0.108794 2.126329 5.854782 0.000000 0.000000 0.000000 32.397212 37.004456 -2.378772 -1.492852 -7.718442 21.862256 1.743697 -30.379847 -33.483294 -3.537229 -11.517712 34.046399 1.588252 1.233308 -4.288184 0.910221 1.423808 -5.047942 0.076752 0.589322 -2.773620 -7.304666 -8.570692 -3.782589 19.223994 -17.029812 19.323729 5.950125 -7.805974 8.979342 0.000000 0.000000 0.000000 1.831115 13.405542 -8.637683 18.188664 -28.398089 4.638598 -6.391756 27.018211 -43.833958 0.000000 0.000000 0.000000 -7.125000 0.000000 0.000000 -56.840619 65.021684 32.015411 0.000000 0.000000 0.000000 -9.092925 9.258977 36.719660 -21.485947 -32.391193 -6.308218 -21.883869 -25.457137 -28.871724 0.000000 0.000000 0.000000 7.125000 0.000000 0.000000 5.124602 -0.630382 5.201412
-0.042029 16.782073 28.436480 183.116115 -45.901060 -168.683244 0.000000 0.000000 0.000000 3.784478 -46.543459 -26.900945 0.474675 4.418465 12.257110 -1.095940 22.031040 -21.728290 0.185255 -2.672658 -7.374198 0.000000 0.000000 0.000000 33.587450 29.685517 4.232768 -0.607545 -4.988984 13.877258 1.818989 -25.936458 -22.948573 -1.126231 -6.728959 18.919316 2.457757 1.244605 -5.331659 1.077633 1.324112 -5.526453 -0.222188 0.480722 -2.674749 -8.004169 -7.835497 -2.840443 19.197487 -16.085968 19.485746 6.235835 -7.521702 8.750112 0.000000 0.000000 0.000000 2.219787 14.462225 -6.422080 16.969168 -26.815358 4.074335 -0.834588 28.449502 -35.257715 0.000000 0.000000 0.000000 -7.125000 0.000000 0.000000 -39.700667 60.589098 16.743306 0.000000 0.000000 0.000000 -7.919215 12.314841 37.657276 -22.734244 -33.796861 -6.989917 -19.946834 -20.945662 -28.226634 0.000000 0.000000 0.000000 7.125000 0.000000 0.000000 6.182565 0.403865 6.175720
-1.195010 16.654111 27.582798 177.292195 -41.590030 -166.615205 0.000000 0.000000 0.000000 -11.511207 -33.836432 -23.470528 0.968034 6.264154 17.552795 -0.000744 3.154709 -4.428889 0.706403 -5.313203 -14.818240 0.000000 0.000000 0.000000 29.238505 23.053888 6.466529 -1.208205 -6.966250 19.618305 0.069018 -18.289112 -25.324563 -0.741090 -5.488392 15.309641 -1.425316 1.965845 -4.371881 -1.340738 2.269445 -6.398448 -0.561972 1.018579 -4.159770 -6.611704 -8.158053 1.822754 20.196107 -17.392736 18.622677 6.436776 -8.507888 7.783342 0.000000 0.000000 0.000000 5.675751 16.129287 -9.731941 15.161964 -24.371292 3.292516 2.083094 30.362261 -35.618479 0.000000 0.000000 0.000000 -7.125000 0.000000 0.000000 -37.217394 61.642925 16.306378 0.000000 0.000000 0.000000 -3.669947 18.153980 33.944380 -18.788798 -29.154198 -4.928160 -22.682219 -23.000773 -27.530503 0.000000 0.000000 0.000000 7.125000 0.000000 0.000000 4.481325 0.595173 4.448082
-2.272541 16.719084 26.844936 175.486080 -35.862751 -166.777898 0.000000 0.000000 0.000000 -19.241543 -26.427215 -19.458044 1.419964 7.535963 21.313190 0.158396 0.661301 -7.788582 0.858787 -5.909420 -16.521970 0.000000 0.000000 0.000000 23.471620 15.629465 -5.329308 -5.241546 -13.650273 41.855159 -0.093961 -8.511616 -13.790954 -0.686302 -5.295279 14.752783 -2.459142 0.894030 -3.760743 -0.693395 0.994356 -4.920471 0.678480 0.469368 -2.990470 -7.824481 -7.706728 -2.854641 18.028539 -16.328148 21.028766 5.772173 -7.749794 9.193749 0.000000 0.000000 0.000000 2.413646 13.158083 -7.522282 16.225018 -25.824878 3.743502 -5.879475 26.679763 -42.473708 0.000000 0.000000 0.000000 -7.125000 0.000000 0.000000 -54.132339 64.356569 29.277167 0.000000 0.000000 0.000000 -7.258419 17.785120 41.078573 -14.652917 -23.660357 -3.085275 -17.643251 -18.703518 -25.511958 0.000000 0.000000 0.000000 7.125000 0.000000 0.000000 7.292310 3.563994 6.881755
